HIERARCHY
ROOT Hips
{
     OFFSET 20.40260 95.22540 -42.13480
     CHANNELS 6 Xposition Yposition Zposition Zrotation Xrotation Yrotation
     JOINT Spine
     {
          OFFSET 0.00000 11.89050 0.00000
          CHANNELS 3 Zrotation Xrotation Yrotation
          JOINT Spine1
          {
               OFFSET 0.00000 25.65740 0.12766
               CHANNELS 3 Zrotation Xrotation Yrotation
               JOINT HEad
               {
                    OFFSET 0.00000 8.73416 0.01134
                    CHANNELS 3 Zrotation Xrotation Yrotation
                    End Site
                    {
                         OFFSET -0.29000 12.77420 2.51395
                    }
               }
               JOINT LeftShoulder1
               {
                    OFFSET 8.99000 -0.36225 -0.22000
                    CHANNELS 3 Zrotation Xrotation Yrotation
                    JOINT LeftArm
                    {
                         OFFSET 10.28270 -0.00338 0.32212
                         CHANNELS 3 Zrotation Xrotation Yrotation
                         JOINT LeftForeArm
                         {
                              OFFSET 32.76690 0.09914 -1.42434
                              CHANNELS 3 Zrotation Xrotation Yrotation
                              JOINT LeftHand
                              {
                                   OFFSET 27.56430 0.08536 1.02216
                                   CHANNELS 3 Zrotation Xrotation Yrotation
                                   End Site
                                   {
                                        OFFSET 16.74430 -0.60000 1.50291
                                   }
                              }
                         }
                    }
               }
               JOINT RightShoulder
               {
                    OFFSET -8.99000 -0.36225 -0.22000
                    CHANNELS 3 Zrotation Xrotation Yrotation
                    JOINT RightArm
                    {
                         OFFSET -10.28270 -0.00338 0.32212
                         CHANNELS 3 Zrotation Xrotation Yrotation
                         JOINT RightForeArm
                         {
                              OFFSET -32.89710 0.09914 -1.42434
                              CHANNELS 3 Zrotation Xrotation Yrotation
                              JOINT RightHand
                              {
                                   OFFSET -27.49210 0.08536 1.02216
                                   CHANNELS 3 Zrotation Xrotation Yrotation
                                   End Site
                                   {
                                        OFFSET -16.63120 -0.60000 1.50291
                                   }
                              }
                         }
                    }
               }
          }
     }
     JOINT LeftUpLeg
     {
          OFFSET 8.94580 -8.66707 0.10165
          CHANNELS 3 Zrotation Xrotation Yrotation
          JOINT LeftLeg
          {
               OFFSET 0.00000 -44.42270 1.37270
               CHANNELS 3 Zrotation Xrotation Yrotation
               JOINT LeftFoot
               {
                    OFFSET -0.25355 -42.09240 -1.46059
                    CHANNELS 3 Zrotation Xrotation Yrotation
                    JOINT LeftToes
                    {
                         OFFSET -0.04000 -4.41509 8.49910
                         CHANNELS 3 Zrotation Xrotation Yrotation
                         End Site
                         {
                              OFFSET 0.08000 -0.04745 9.77979
                         }
                    }
               }
          }
     }
     JOINT RightUpLeg
     {
          OFFSET -8.94580 -8.66707 0.10165
          CHANNELS 3 Zrotation Xrotation Yrotation
          JOINT RightLeg
          {
               OFFSET 0.00000 -44.42270 1.37270
               CHANNELS 3 Zrotation Xrotation Yrotation
               JOINT RightFoot
               {
                    OFFSET 0.25355 -42.09240 -1.46059
                    CHANNELS 3 Zrotation Xrotation Yrotation
                    JOINT RightToes
                    {
                         OFFSET 0.04000 -4.41509 8.49910
                         CHANNELS 3 Zrotation Xrotation Yrotation
                         End Site
                         {
                              OFFSET -0.08000 -0.13745 9.77979
                         }
                    }
               }
          }
     }
}
MOTION
Frames: 10
Frame Time: 0.01667
22.22380 90.03740 -46.13510 -7.68810 -7.38787 -51.17160 2.92103 9.17035 -2.07087 0.23445 18.60330 -3.15982 -3.70072 38.32010 4.85525 0.00000 0.00000 0.00000 -16.03350 -32.41770 -70.97510 -13.68160 6.33752 10.01480 66.84810 6.63160 -0.75281 -8.52102 -0.10791 6.19130 53.97720 9.25565 122.19100 -20.30660 19.86680 100.86200 -19.87090 7.87031 7.81879 32.08740 -8.89740 7.71860 -12.01650 17.84190 24.77100 -3.66676 8.28681 0.44328 -0.28604 -1.66619 3.34210 -12.19350 -14.71940 -2.37821 -4.71375 54.85620 5.00070 4.34332 -29.42910 0.54399 -1.46553 0.78057 -14.49810 
22.17940 90.03590 -46.16670 -7.60378 -7.42989 -51.05010 3.03677 9.14793 -2.05000 0.41099 18.56270 -3.12684 -3.75702 38.25170 4.68033 0.00000 0.00000 0.00000 -16.22930 -32.29430 -71.13170 -13.60480 6.33148 9.98538 66.82560 6.67067 -0.69468 -8.52683 -0.10181 5.98189 53.94420 9.25823 122.24800 -20.27310 19.89720 100.68700 -19.93030 7.83850 7.96850 32.05560 -8.86387 7.86888 -12.01860 17.68650 24.46320 -3.87399 8.18623 0.46927 0.19217 -1.01203 3.52903 -12.24610 -14.72090 -2.35770 -4.64764 54.90420 4.86555 4.36838 -29.54530 0.55303 -1.44633 0.78371 -14.33920 
22.14550 90.04310 -46.16060 -7.53413 -7.48919 -50.98710 3.11136 9.12946 -2.01905 0.55420 18.52700 -3.07666 -3.85779 38.19310 4.58209 0.00000 0.00000 0.00000 -16.34930 -32.16140 -71.18580 -13.50240 6.26591 9.94814 66.82550 6.69718 -0.65377 -8.54783 -0.09738 5.79453 53.90930 9.27238 122.28100 -20.15820 19.92940 100.45300 -19.96320 7.80407 8.14989 31.99370 -8.79766 8.00748 -12.03490 17.56760 24.20820 -3.90371 8.09266 0.47077 0.56067 -0.52021 3.71133 -12.30580 -14.69080 -2.35651 -4.71691 54.91270 4.89174 4.46398 -29.66090 0.57633 -1.40188 0.87504 -14.21900 
22.11880 90.05670 -46.12000 -7.46030 -7.56531 -50.99050 3.11951 9.10877 -1.98140 0.62358 18.48320 -3.01540 -3.95737 38.16460 4.56987 0.00000 0.00000 0.00000 -16.29310 -32.03460 -71.07180 -13.41340 6.12654 9.91864 66.82080 6.68238 -0.67706 -8.55167 -0.09450 5.69447 53.87440 9.27631 122.26700 -20.03030 19.94830 100.23200 -19.95730 7.77093 8.34877 31.89450 -8.71087 8.13120 -12.06510 17.48960 24.05310 -3.81283 8.00652 0.45598 0.81470 -0.17325 3.81915 -12.37730 -14.65190 -2.37358 -4.93750 54.89280 5.10432 4.60733 -29.78900 0.61000 -1.33403 1.07157 -14.20370 
22.09570 90.07850 -46.04800 -7.37778 -7.63436 -51.05060 3.07409 9.08166 -1.93969 0.61751 18.42410 -2.94473 -4.01842 38.16820 4.61102 0.00000 0.00000 0.00000 -16.04970 -31.94880 -70.81090 -13.38350 5.93155 9.91404 66.77710 6.59832 -0.81106 -8.51115 -0.09210 5.70271 53.83110 9.23996 122.21100 -19.93780 19.95240 100.09100 -19.90900 7.74953 8.50728 31.77980 -8.62402 8.25979 -12.09760 17.45760 24.00140 -3.71509 7.92668 0.44057 0.99841 0.09718 3.84457 -12.44280 -14.61970 -2.38575 -5.25464 54.84480 5.44582 4.78016 -29.93430 0.65071 -1.23462 1.40710 -14.32930 
22.07400 90.11080 -45.94760 -7.28998 -7.66718 -51.13970 3.02144 9.04734 -1.89831 0.57376 18.35100 -2.86834 -4.00846 38.18270 4.63335 0.00000 0.00000 0.00000 -15.73870 -31.94500 -70.50930 -13.42360 5.74887 9.93621 66.67870 6.46629 -1.02491 -8.43898 -0.08983 5.78394 53.78180 9.15494 122.14600 -19.89200 19.95000 100.06700 -19.81750 7.75550 8.53399 31.67490 -8.55810 8.40749 -12.11340 17.45710 24.03640 -3.67939 7.89390 0.43488 1.08610 0.25100 3.78733 -12.48830 -14.60060 -2.36104 -5.54999 54.76710 5.78510 4.97163 -30.09200 0.69626 -1.09680 1.89149 -14.58060 
22.05160 90.15260 -45.82060 -7.20323 -7.64727 -51.22460 3.00615 9.00801 -1.86063 0.54275 18.27030 -2.79115 -3.89929 38.17260 4.56075 0.00000 0.00000 0.00000 -15.50760 -32.03280 -70.28020 -13.51440 5.63514 9.97554 66.54140 6.32475 -1.25832 -8.37908 -0.08860 5.87597 53.75010 9.03940 122.11300 -19.87590 19.95280 100.15500 -19.68450 7.79641 8.38095 31.59570 -8.53218 8.57620 -12.10220 17.48010 24.12010 -3.69678 7.94313 0.43851 1.01461 0.18364 3.67213 -12.51940 -14.58980 -2.27344 -5.68834 54.66320 5.97158 5.17290 -30.24540 0.74424 -0.93222 2.46138 -14.88410 
22.02630 90.20080 -45.67080 -7.12528 -7.58522 -51.28460 3.04088 8.96755 -1.82663 0.55579 18.19020 -2.71587 -3.69482 38.12650 4.35823 0.00000 0.00000 0.00000 -15.42660 -32.17830 -70.16700 -13.63160 5.59279 10.02250 66.40440 6.18531 -1.48950 -8.37523 -0.09006 5.93376 53.76160 8.92165 122.12100 -19.86810 19.96710 100.30700 -19.53080 7.86001 8.10285 31.54090 -8.54979 8.74742 -12.07350 17.53460 24.20680 -3.71750 8.05288 0.44420 0.79143 -0.11838 3.57150 -12.55440 -14.56830 -2.11428 -5.60072 54.53780 5.92005 5.37832 -30.36880 0.79237 -0.77261 2.99327 -15.13750 
21.99700 90.25260 -45.50570 -7.06313 -7.51032 -51.31540 3.10856 8.92993 -1.79536 0.61226 18.11700 -2.64456 -3.45316 38.07030 4.06452 0.00000 0.00000 0.00000 -15.47480 -32.32860 -70.13430 -13.74900 5.59373 10.06790 66.29390 6.05178 -1.70951 -8.43528 -0.09457 5.94845 53.81050 8.82883 122.15700 -19.86820 19.98370 100.44400 -19.40470 7.91859 7.83217 31.49620 -8.59611 8.88888 -12.04490 17.62820 24.27250 -3.70128 8.16469 0.44489 0.50188 -0.54682 3.54260 -12.60170 -14.51250 -1.90659 -5.34862 54.39120 5.67581 5.59012 -30.44590 0.84016 -0.64695 3.39081 -15.27650 
21.96320 90.30540 -45.33570 -7.01605 -7.44526 -51.31800 3.17603 8.89685 -1.76546 0.68713 18.05280 -2.57904 -3.25686 38.02510 3.77844 0.00000 0.00000 0.00000 -15.57750 -32.43670 -70.11590 -13.83340 5.60785 10.10000 66.20930 5.94197 -1.89029 -8.51030 -0.09926 5.93584 53.85230 8.77956 122.20700 -19.88320 19.98630 100.50700 -19.35430 7.95099 7.66817 31.44890 -8.65816 8.97858 -12.02530 17.75770 24.32210 -3.64675 8.22622 0.43895 0.24569 -0.94596 3.56921 -12.65290 -14.41530 -1.71496 -5.09107 54.22270 5.39096 5.80705 -30.47110 0.88681 -0.57104 3.61381 -15.29830 
